<svg width="512" height="512" viewBox="0 0 512 512" fill="none" xmlns="http://www.w3.org/2000/svg">
<path d="M437.333 64L433.92 64.64L320 108.8L192 64L71.68 104.533C67.2 106.027 64 109.867 64 114.773V437.333C64 443.307 68.6933 448 74.6667 448L78.08 447.36L192 403.2L320 448L440.32 407.467C444.8 405.973 448 402.133 448 397.227V74.6667C448 68.6933 443.307 64 437.333 64ZM320 405.333L192 360.32V106.667L320 151.68V405.333Z" fill="#2DD36F"/>
<path d="M197.108 468.672L204.081 486.074L211.054 468.672H214.701V490H211.889V481.694L212.152 472.729L205.15 490H202.997L196.01 472.773L196.288 481.694V490H193.476V468.672H197.108ZM229.027 490C228.871 489.688 228.744 489.131 228.646 488.33C227.387 489.639 225.883 490.293 224.135 490.293C222.572 490.293 221.288 489.854 220.282 488.975C219.286 488.086 218.788 486.963 218.788 485.605C218.788 483.955 219.413 482.676 220.663 481.768C221.923 480.85 223.69 480.391 225.966 480.391H228.603V479.146C228.603 478.198 228.319 477.446 227.753 476.89C227.187 476.323 226.352 476.04 225.248 476.04C224.281 476.04 223.471 476.284 222.816 476.772C222.162 477.261 221.835 477.852 221.835 478.545H219.11C219.11 477.754 219.389 476.992 219.945 476.26C220.512 475.518 221.273 474.932 222.23 474.502C223.197 474.072 224.257 473.857 225.409 473.857C227.235 473.857 228.666 474.316 229.701 475.234C230.736 476.143 231.273 477.397 231.312 478.999V486.294C231.312 487.749 231.498 488.906 231.869 489.766V490H229.027ZM224.53 487.935C225.38 487.935 226.186 487.715 226.947 487.275C227.709 486.836 228.261 486.265 228.603 485.562V482.31H226.479C223.158 482.31 221.498 483.281 221.498 485.225C221.498 486.074 221.781 486.738 222.348 487.217C222.914 487.695 223.642 487.935 224.53 487.935ZM248.949 482.251C248.949 484.663 248.397 486.606 247.294 488.081C246.19 489.556 244.696 490.293 242.812 490.293C240.888 490.293 239.374 489.683 238.271 488.462V496.094H235.561V474.15H238.036L238.168 475.908C239.271 474.541 240.805 473.857 242.768 473.857C244.672 473.857 246.176 474.575 247.279 476.011C248.393 477.446 248.949 479.443 248.949 482.002V482.251ZM246.239 481.943C246.239 480.156 245.858 478.745 245.097 477.71C244.335 476.675 243.29 476.157 241.962 476.157C240.321 476.157 239.091 476.885 238.271 478.34V485.913C239.081 487.358 240.321 488.081 241.991 488.081C243.29 488.081 244.32 487.568 245.082 486.543C245.854 485.508 246.239 483.975 246.239 481.943ZM276.664 490H273.837V480.142H263.085V490H260.272V468.672H263.085V477.842H273.837V468.672H276.664V490ZM287.812 490.293C285.663 490.293 283.915 489.59 282.567 488.184C281.22 486.768 280.546 484.878 280.546 482.515V482.017C280.546 480.444 280.844 479.043 281.439 477.812C282.045 476.572 282.885 475.605 283.959 474.912C285.043 474.209 286.215 473.857 287.475 473.857C289.535 473.857 291.137 474.536 292.279 475.894C293.422 477.251 293.993 479.194 293.993 481.724V482.852H283.256C283.295 484.414 283.749 485.679 284.618 486.646C285.497 487.603 286.61 488.081 287.958 488.081C288.915 488.081 289.726 487.886 290.39 487.495C291.054 487.104 291.635 486.587 292.133 485.942L293.788 487.231C292.46 489.272 290.468 490.293 287.812 490.293ZM287.475 476.084C286.381 476.084 285.463 476.484 284.721 477.285C283.979 478.076 283.52 479.189 283.344 480.625H291.283V480.42C291.205 479.043 290.834 477.979 290.17 477.227C289.506 476.465 288.607 476.084 287.475 476.084ZM304.804 476.582C304.394 476.514 303.949 476.479 303.471 476.479C301.693 476.479 300.487 477.236 299.853 478.75V490H297.143V474.15H299.779L299.823 475.981C300.712 474.565 301.972 473.857 303.603 473.857C304.13 473.857 304.53 473.926 304.804 474.062V476.582ZM313.593 490.293C311.444 490.293 309.696 489.59 308.349 488.184C307.001 486.768 306.327 484.878 306.327 482.515V482.017C306.327 480.444 306.625 479.043 307.221 477.812C307.826 476.572 308.666 475.605 309.74 474.912C310.824 474.209 311.996 473.857 313.256 473.857C315.316 473.857 316.918 474.536 318.061 475.894C319.203 477.251 319.774 479.194 319.774 481.724V482.852H309.037C309.076 484.414 309.53 485.679 310.399 486.646C311.278 487.603 312.392 488.081 313.739 488.081C314.696 488.081 315.507 487.886 316.171 487.495C316.835 487.104 317.416 486.587 317.914 485.942L319.569 487.231C318.241 489.272 316.249 490.293 313.593 490.293ZM313.256 476.084C312.162 476.084 311.244 476.484 310.502 477.285C309.76 478.076 309.301 479.189 309.125 480.625H317.064V480.42C316.986 479.043 316.615 477.979 315.951 477.227C315.287 476.465 314.389 476.084 313.256 476.084Z" fill="black"/>
</svg>
